<?xml version="1.0" encoding="utf-8"?>
<!-- Generator: Adobe Illustrator 23.0.3, SVG Export Plug-In . SVG Version: 6.00 Build 0)  -->
<svg version="1.1" id="Layer_1" xmlns="http://www.w3.org/2000/svg" xmlns:xlink="http://www.w3.org/1999/xlink" 
	 viewBox="0 0 229.2 26.2" style="enable-background:new 0 0 229.2 26.2;" xml:space="preserve">
<g>
	<path d="M184,17.5c1.1,1.5,2.9,2.3,5.4,2.3c3.5,0,5.4-2.1,5.4-4.1c0-1.8-1.1-3-3.2-3.4l-2.2-0.4c-1.2-0.2-2-0.4-2-1.2
		c0-0.9,0.8-1.4,2.1-1.4c1.2,0,2,0.4,2.8,1.2l2-1.4c-1-1.3-2.4-1.9-4.7-1.9c-2.3,0-4.8,1.2-4.8,4c0,2.1,1.8,2.9,3.3,3.1l1.6,0.3
		c1.7,0.3,2.4,0.5,2.4,1.5c0,1.2-1.3,1.6-2.5,1.6c-1.4,0-2.6-0.6-3.4-1.6L184,17.5z"/>
</g>
<g>
	<g>
		<path d="M217,19.5h2.7V7.4H217V19.5z"/>
	</g>
	<g>
		<path d="M224.8,19.5h2.8v-7.8c0-2.9-1.5-4.6-4.2-4.6c-1.3,0-2.1,0.8-2.8,1.7v1.5c0.4-0.5,1.1-0.7,1.9-0.7c1.5,0,2.3,1,2.3,2.9
			V19.5z"/>
	</g>
</g>
<g>
	<path d="M23.6,19.5h2.8V7.4h-2.8V19.5z"/>
</g>
<g>
	<path d="M42.5,24.1c0.5,0.1,1.1,0.1,1.4,0.1c2,0,3.3-0.9,4-2.6l5.2-14.3h-2.9l-3,8.4l0,0.2l-0.1-0.2l-2.7-8.4h-3.1l4.6,12.1
		l-0.5,1.5c-0.2,0.6-0.8,0.9-1.5,0.9c-0.3,0-0.8,0-1.3-0.1L42.5,24.1L42.5,24.1z"/>
</g>
<g>
	<path d="M59,7.2c-2.7,0-5.5,1.8-5.5,5.1v2.8c0,3.3,2.9,4.8,5.6,4.8c2.7,0,5.5-1.8,5.5-5.1v-2.5C64.6,8.9,61.7,7.2,59,7.2z
		 M59.1,17.5c-1.6,0-2.7-1-2.7-2.4v-3c0-0.8,0.3-1.6,0.8-2.2C57.7,9.3,58.4,9,59,9c1.7,0,2.7,1.1,2.7,2.9V15
		C61.7,16.8,60.3,17.5,59.1,17.5z"/>
</g>
<g>
	<path d="M125.9,19.5h2.8V7.4h-2.8V19.5z"/>
</g>
<g>
	<path d="M177.1,7.2c-3.8,0-5.6,2.7-5.6,5.3v2.4c0,3.4,2.8,5,5.6,5c2.3,0,4.1-0.9,5-2.6L180,16c-0.7,1-1.7,1.6-2.7,1.6
		c-1.7,0-2.9-1-2.9-2.5v-0.7h7.9v-2.3C182.3,8.6,179.6,7.2,177.1,7.2z M179.5,12.3h-5.1v-0.2c0-1.9,1.5-2.6,2.7-2.6
		c1.8,0,2.4,1.2,2.4,2.4V12.3z"/>
</g>
<g>
	<path d="M197.4,19.5h2.8V7.4h-2.8V19.5z"/>
</g>
<g>
	<g>
		<path d="M74.6,19.5h2.7V7.4h-2.7V19.5z"/>
	</g>
	<g>
		<path d="M66.7,7.4v7.8c0,2.9,1.6,4.6,4.3,4.6c1.6,0,2.3-0.7,2.7-1.4v-1.8c-0.4,0.5-1.1,0.7-1.8,0.7c-1.5,0-2.4-1-2.4-2.9V7.4H66.7
			z"/>
	</g>
</g>
<g>
	<g>
		<path d="M80.4,19.5h2.7V7.4h-2.7V19.5z"/>
	</g>
	<g>
		<path d="M88.2,19.5H91v-7.8c0-2.9-1.5-4.6-4.2-4.6c-1.3,0-2.1,0.8-2.8,1.7v1.5c0.4-0.5,1.1-0.7,1.8-0.7c1.5,0,2.3,1,2.3,2.9
			C88.2,12.5,88.2,19.5,88.2,19.5z"/>
	</g>
</g>
<g>
	<path d="M93.7,21.4c0.7,2,3,2.9,4.9,2.9c4.3,0,5.8-3,5.8-5.7V7.4h-2.7v1.5h-0.1l0,0c-0.6-0.8-1.9-1.7-3.4-1.7c-2.9,0-4.8,2-4.8,5.1
		v2.4c0,3,1.8,4.8,4.8,4.8c1,0,2-0.5,2.5-1.3v-1.5c-0.5,0.4-1.1,0.5-1.8,0.5c-1.6,0-2.7-1-2.7-2.4v-2.7c0-1.8,1.4-2.5,2.6-2.5
		c1.6,0,2.7,1,2.7,2.4v7.2c0,1.8-1.1,2.9-2.8,2.9c-1.1,0-1.9-0.5-2.5-1.6L93.7,21.4z"/>
</g>
<g>
	<path d="M203.1,21.4c0.6,2,3,2.9,4.9,2.9c4.3,0,5.8-3,5.8-5.7V7.4h-2.7v1.5h-0.1l0,0c-0.6-0.8-1.9-1.7-3.4-1.7
		c-2.9,0-4.8,2-4.8,5.1v2.4c0,3,1.8,4.8,4.8,4.8c1,0,2-0.5,2.5-1.3v-1.5c-0.5,0.4-1.1,0.5-1.8,0.5c-1.6,0-2.7-1-2.7-2.4v-2.7
		c0-1.8,1.4-2.5,2.6-2.5c1.6,0,2.7,1,2.7,2.4v7.2c0,1.8-1.1,2.9-2.8,2.9c-1.1,0-1.9-0.5-2.5-1.6L203.1,21.4z"/>
</g>
<g>
	<path d="M2.8,19.5h2.7V7.4H2.8V19.5z"/>
	<g>
		<path d="M17.8,19.5h2.8v-8.1c0-3.1-2.2-4.3-4.2-4.3c-1.6,0-2.8,0.6-3.8,1.8l0,0h-0.1l0,0c-0.8-1.2-1.9-1.8-3.4-1.8
			c-1.2,0-2.2,1-2.7,1.9v1.3C6.8,9.8,7.4,9.6,8,9.6c1.5,0,2.3,0.9,2.3,2.9v7h2.8v-7c0-1.9,0.9-2.9,2.4-2.9c1.5,0,2.3,1,2.3,2.9
			L17.8,19.5L17.8,19.5z"/>
	</g>
</g>
<g>
	<g>
		<path d="M131.9,19.5h2.7V7.4h-2.7V19.5z"/>
	</g>
	<g>
		<path d="M147,19.5h2.8v-8.1c0-3.1-2.2-4.3-4.2-4.3c-1.6,0-2.8,0.6-3.8,1.8l0,0h-0.1l0,0c-0.8-1.2-1.9-1.8-3.4-1.8
			c-1.2,0-2.2,1-2.7,1.9v1.3c0.4-0.4,1.1-0.7,1.7-0.7c1.5,0,2.3,0.9,2.3,2.9v7.1h2.8v-7c0-1.9,0.9-2.9,2.4-2.9c1.5,0,2.3,1,2.3,2.9
			L147,19.5L147,19.5z"/>
	</g>
</g>
<g>
	<path d="M163.1,7.1c-2.3,0-5,1.3-5,4.9v3c0,2.9,1.9,4.8,4.8,4.8c0.8,0,1.8-0.4,2.6-0.9v-2.1c-0.5,0.4-1.1,0.6-1.8,0.6
		c-1.6,0-2.7-1-2.7-2.4V12c0-1.8,1.4-2.5,2.6-2.5c1.6,0,2.8,1,2.8,2.4v7.6h2.8v-17h-2.8v6.1h-0.1l0,0C165.7,7.9,164.6,7.1,163.1,7.1
		z"/>
</g>
<g>
	<g>
		<path d="M29.5,19.5h2.6v-17h-2.6C29.5,2.5,29.5,19.5,29.5,19.5z"/>
	</g>
	<g>
		<path d="M37.5,19.5h3.1l-4.9-7.2l0,0l4.7-5h-3.3l-4.5,5.1L37.5,19.5z"/>
	</g>
</g>
<g>
	<g>
		<path d="M113,19.5h2.6v-17H113V19.5z"/>
	</g>
	<g>
		<path d="M121,19.5h3.1l-4.9-7.2l0,0l4.7-5h-3.3l-4.5,5.1L121,19.5z"/>
	</g>
</g>
</svg>
